# xmcd
#
# Track frame offsets: 
#        150
#        26445
#        41483
#        67733
#        84428
#        105445
#        136175
#        157213
#        176473
#        202593
#        227655
#        251248
#        271553
#        297565
#
# Disc length: 4246 seconds
#
# Revision: 2
# Processed by: cddbd v1.5.2PL0 Copyright (c) Steve Scherf et al.
# Submitted via: ExactAudioCopy v1.0b3
#
DISCID=b010940e
DTITLE=Tuan Vu - Gui Ve Em
DYEAR=1994
DGENRE=
TTITLE0=Nguoi o lai Charlie
TTITLE1=Tinh nghia doi ta
TTITLE2=Thoi
TTITLE3=Mot ngay khong co em
TTITLE4=Tinh la soi to
TTITLE5=Neu mot ngay
TTITLE6=Goi ve em
TTITLE7=Truc dao
TTITLE8=Tinh thu cua linh
TTITLE9=Hanh trang gia tu
TTITLE10=Ngay vui qua mau
TTITLE11=Nhung tam hon co don
TTITLE12=Loi tu tinh
TTITLE13=Ngoai o den vang
EXTD=
EXTT0=
EXTT1=
EXTT2=
EXTT3=
EXTT4=
EXTT5=
EXTT6=
EXTT7=
EXTT8=
EXTT9=
EXTT10=
EXTT11=
EXTT12=
EXTT13=
PLAYORDER=
